<svg viewBox="0 0 3762 2104" xmlns="http://www.w3.org/2000/svg"><g fill="none" fill-rule="evenodd"><path d="M0 2056v-64h3762v64c-53 24-124 48-281 48H281c-157 0-228-23-281-48z" fill="#A2A7AE"/><path d="M0 1992h1574l40 40h534l40-40h1574v64H0v-64z" fill="#C8CBD0"/><path d="M3261.9335 0c42.793 0 58.3106 4.4556 73.955 12.8224 15.6445 8.3667 27.9224 20.6446 36.2891 36.289C3380.5444 64.756 3385 80.2736 3385 123.0664V1992H377V123.0665c0-42.793 4.4556-58.3106 12.8224-73.955 8.3667-15.6445 20.6446-27.9224 36.289-36.2891C441.756 4.4556 457.2736 0 500.0664 0h2761.8671zm43.0687 96H456.9978C448.1663 96 441 103.1666 441 112.0071V1879.993c0 8.8486 7.1625 16.0071 15.9978 16.0071h2848.0044c8.8315 0 15.9978-7.1666 15.9978-16.0071V112.007c0-8.8486-7.1625-16.0071-15.9978-16.0071z" fill="#000"/></g></svg>