<svg viewBox="0 0 64 64" fill="none" xmlns="http://www.w3.org/2000/svg"><title>React logo</title><path d="M38.0807 32c0 3.0983-2.5116 5.61-5.61 5.61-3.0983 0-5.61-2.5117-5.61-5.61 0-3.0983 2.5117-5.61 5.61-5.61 3.0984 0 5.61 2.5117 5.61 5.61Z" fill="#61DAFB"/><path fill-rule="evenodd" clip-rule="evenodd" d="M32.4707 10.889c-.9197-.8941-1.8361-1.7125-2.7415-2.4483-2.3383-1.9005-4.6618-3.2984-6.8313-4.0003-2.1693-.7018-4.3361-.7493-6.1626.3052C14.9089 5.8 13.8667 7.7004 13.3898 9.93c-.477 2.2297-.4281 4.9408.0486 7.9162.1846 1.152.4351 2.3548.7496 3.5983-1.2342.3494-2.401.7338-3.491 1.15-2.815 1.0748-5.1874 2.3881-6.88 3.916C2.1246 28.0383 1 29.891 1 32c0 2.109 1.1246 3.9617 2.817 5.4895 1.6926 1.5279 4.065 2.8412 6.88 3.916 1.09.4162 2.2568.8006 3.4911 1.15-.3146 1.2435-.5651 2.4463-.7497 3.5983-.4767 2.9754-.5256 5.6865-.0486 7.9163.4769 2.2295 1.5191 4.1298 3.3455 5.1843 1.8265 1.0545 3.9933 1.007 6.1626.3052 2.1695-.7019 4.493-2.0998 6.8313-4.0003.9054-.7358 1.8218-1.5542 2.7415-2.4483.9197.8941 1.836 1.7125 2.7414 2.4483 2.3384 1.9005 4.6619 3.2984 6.8313 4.0003 2.1694.7018 4.3362.7493 6.1626-.3052 1.8265-1.0545 2.8687-2.9548 3.3456-5.1843.4769-2.2298.428-4.9409-.0487-7.9163-.1845-1.152-.4351-2.3547-.7496-3.5983 1.2342-.3494 2.4011-.7338 3.4911-1.15 2.8151-1.0748 5.1874-2.3881 6.88-3.916 1.6924-1.5278 2.817-3.3805 2.817-5.4895 0-2.109-1.1246-3.9617-2.817-5.4895-1.6926-1.5279-4.0649-2.8412-6.88-3.916-1.09-.4162-2.2569-.8006-3.4911-1.15.3145-1.2436.5651-2.4463.7496-3.5983.4767-2.9754.5256-5.6865.0487-7.9162-.4769-2.2296-1.5191-4.13-3.3456-5.1844-1.8264-1.0545-3.9932-1.007-6.1625-.3052-2.1695.7019-4.493 2.0998-6.8314 4.0003-.9054.7358-1.8217 1.5542-2.7414 2.4483ZM22.0556 7.0442c-1.7357-.5616-3.0298-.4611-3.952.0713-.9222.5325-1.6562 1.603-2.0378 3.3868-.3815 1.7837-.371 4.1287.0747 6.911.1713 1.0689.405 2.1915.7 3.3581 2.589-.586 5.4108-1.0292 8.3939-1.305 1.7304-2.4455 3.5251-4.6677 5.3271-6.6168-.8628-.8388-1.7181-1.6025-2.5582-2.2853-2.1867-1.7771-4.2123-2.9587-5.9477-3.5201Zm10.4151 7.7718c-1.2257 1.3333-2.4549 2.8071-3.6656 4.405a80.603 80.603 0 0 1 3.6656-.0829c1.2391 0 2.4624.0281 3.6655.0829-1.2107-1.5979-2.4398-3.0717-3.6655-4.405Zm-9.2342 7.62c-1.9892.2496-3.8801.5771-5.6476.972.5418 1.7282 1.2036 3.5295 1.982 5.377a80.6944 80.6944 0 0 1 1.761-3.216 80.7308 80.7308 0 0 1 1.9046-3.133ZM21.0229 32c.8043-1.67 1.6981-3.3637 2.679-5.0627.9808-1.6989 2.0008-3.3198 3.0449-4.8514 1.8484-.1384 3.7621-.2113 5.7239-.2113 1.9617 0 3.8755.0729 5.7239.2113 1.044 1.5316 2.064 3.1525 3.0449 4.8514.9809 1.699 1.8746 3.3927 2.679 5.0627-.8044 1.67-1.6981 3.3637-2.679 5.0627-.9809 1.6989-2.0009 3.3198-3.0449 4.8514-1.8484.1384-3.7621.2113-5.7239.2113-1.9618 0-3.8755-.0729-5.7239-.2113-1.0441-1.5316-2.0641-3.1525-3.0449-4.8514-.9809-1.699-1.8747-3.3927-2.679-5.0627Zm-3.0248 0c-1.2527-2.7213-2.2798-5.3866-3.0668-7.9218-1.1577.3278-2.2468.6867-3.2581 1.0729-2.6324 1.005-4.6685 2.1685-6.0224 3.3907C4.2965 29.7642 3.7366 30.9351 3.7366 32c0 1.0649.56 2.2358 1.9142 3.4582 1.354 1.2222 3.39 2.3857 6.0224 3.3908 1.0113.3861 2.1004.745 3.2581 1.0728.787-2.5352 1.8141-5.2005 3.0668-7.9218Zm-.4092 8.592c.5418-1.7281 1.2036-3.5295 1.982-5.3769a80.761 80.761 0 0 0 1.761 3.2159 80.7308 80.7308 0 0 0 1.9046 3.133c-1.9892-.2496-3.8801-.5771-5.6476-.972Zm-.7484 2.6366c-.295 1.1666-.5287 2.2892-.7 3.3581-.4457 2.7823-.4562 5.1273-.0747 6.911.3816 1.7839 1.1156 2.8543 2.0378 3.3868.9222.5324 2.2163.6328 3.952.0713 1.7354-.5614 3.761-1.7429 5.9477-3.5201.8401-.6828 1.6954-1.4465 2.5582-2.2853-1.802-1.9491-3.5967-4.1713-5.3271-6.6168-2.9831-.2758-5.8049-.719-8.3939-1.305Zm17.5394 7.9218c.8627.8388 1.7181 1.6025 2.5582 2.2853 2.1866 1.7771 4.2122 2.9587 5.9477 3.5201 1.7356.5615 3.0297.4611 3.9519-.0713.9222-.5325 1.6563-1.6029 2.0378-3.3868.3815-1.7837.3711-4.1287-.0747-6.911-.1713-1.0689-.405-2.1915-.7-3.3581-2.589.586-5.4108 1.0292-8.3938 1.305-1.7304 2.4455-3.5251 4.6677-5.3271 6.6168Zm1.7563-6.3714c-1.2107 1.5979-2.4398 3.0717-3.6655 4.405-1.2257-1.3333-2.4549-2.8071-3.6656-4.405a80.603 80.603 0 0 0 3.6656.0829c1.2391 0 2.4624-.0281 3.6655-.0829Zm5.5686-3.215c1.9892-.2496 3.8801-.5771 5.6476-.972-.5417-1.7281-1.2036-3.5295-1.982-5.3769a80.6335 80.6335 0 0 1-1.761 3.2159 80.4831 80.4831 0 0 1-1.9046 3.133ZM46.9432 32c1.2527 2.7213 2.2798 5.3866 3.0668 7.9218 1.1578-.3278 2.2468-.6867 3.2582-1.0728 2.6324-1.0051 4.6685-2.1686 6.0224-3.3908 1.3542-1.2224 1.9142-2.3933 1.9142-3.4582 0-1.0649-.56-2.2358-1.9142-3.4582-1.3539-1.2222-3.39-2.3857-6.0224-3.3907-1.0114-.3862-2.1004-.7451-3.2582-1.0729-.787 2.5352-1.8141 5.2005-3.0668 7.9218Zm1.1576-11.2286c-2.589-.586-5.4108-1.0292-8.3938-1.305-1.7304-2.4455-3.5251-4.6677-5.3271-6.6168.8627-.8388 1.7181-1.6025 2.5582-2.2853 2.1866-1.7771 4.2122-2.9587 5.9477-3.5201 1.7356-.5615 3.0297-.4611 3.9519.0713.9222.5325 1.6563 1.603 2.0378 3.3868.3815 1.7837.3711 4.1287-.0747 6.911-.1713 1.0689-.405 2.1915-.7 3.3581Zm-.7484 2.6366c-.5417 1.7281-1.2036 3.5295-1.982 5.377a80.5672 80.5672 0 0 0-1.761-3.216 80.4831 80.4831 0 0 0-1.9046-3.133c1.9892.2496 3.8801.5771 5.6476.972Z" fill="#61DAFB"/></svg>
