<svg viewBox="0 0 64 64" fill="none" xmlns="http://www.w3.org/2000/svg"><title>Sketch logo</title><g clip-path="url(#a)"><path d="m13.9355 4.903 18-1.903 18 1.903L63.871 23.61 31.9355 60.7987 0 23.6101 13.9355 4.903Z" fill="#FDB300"/><path d="m12.9355 23.6101 19 37.1886L0 23.6101h12.9355Z" fill="#EA6C00"/><path d="M50.9355 23.6101 31.9354 60.7987l31.9355-37.1886H50.9355Z" fill="#EA6C00"/><path d="M12.9355 23.6101h38.0001L31.9355 60.7987l-19-37.1886Z" fill="#FDAD00"/><path d="M31.9355 3 13.9354 4.903 12.9355 23.61 31.9355 3Z" fill="#FDD231"/><path d="m31.9354 3 18.0001 1.903 1 18.7071L31.9354 3Z" fill="#FDD231"/><path d="M63.871 23.6101 49.9354 4.903 50.9356 23.61H63.871Zm-63.871 0L13.9354 4.903 12.9355 23.61H0Z" fill="#FDAD00"/><path d="m31.9355 3-19 20.6101h38.0001L31.9355 3Z" fill="#FEEEB7"/></g><defs><clipPath id="a"><path fill="#fff" d="M0 0H64V64H0z"/></clipPath></defs></svg>
