<svg viewBox="0 0 64 64" fill="none" xmlns="http://www.w3.org/2000/svg"><title>Next.js logo</title><g clip-path="url(#a)"><path d="M29.9065.05c-.1375.0125-.575.0562-.9687.0875C19.8575.9562 11.352 5.8557 5.9651 13.3862 2.9654 17.5733 1.0468 22.3228.3219 27.3536c-.2563 1.7561-.2875 2.2748-.2875 4.6558 0 2.381.0312 2.8997.2875 4.6558 1.7373 12.005 10.2802 22.0916 21.8666 25.8287 2.0748.6687 4.2621 1.1249 6.7493 1.3999.9687.1062 5.1558.1062 6.1244 0 4.2933-.475 7.9305-1.5374 11.5176-3.3685.55-.2812.6562-.3562.5812-.4187-.05-.0375-2.3935-3.1809-5.2057-6.9805l-5.112-6.9056-6.4056-9.4803c-3.5247-5.212-6.4244-9.4741-6.4494-9.4741-.025-.0063-.05 4.2058-.0625 9.3491-.0187 9.0053-.025 9.3678-.1375 9.5803-.1625.3062-.2875.4312-.5499.5687-.2.1-.375.1187-1.3186.1187h-1.0812l-.2875-.1812a1.1702 1.1702 0 0 1-.4187-.4562l-.1312-.2812.0125-12.5301.0187-12.5362.1938-.2438c.1-.1312.3124-.2999.4624-.3812.2562-.125.3562-.1375 1.4374-.1375 1.2749 0 1.4873.05 1.8186.4125.0937.1 3.5621 5.3245 7.7117 11.6176s9.824 14.8861 12.6113 19.1044l5.062 7.668.2562-.1687c2.2685-1.4749 4.6683-3.5747 6.5681-5.762 4.0434-4.6433 6.6494-10.3052 7.5243-16.3421.2562-1.7561.2874-2.2748.2874-4.6558 0-2.381-.0312-2.8997-.2874-4.6558C61.9408 15.3485 53.3979 5.262 41.8116 1.5249 39.768.8624 37.5932.4062 35.156.1312 34.556.0687 30.4252 0 29.9065.05Zm13.0862 19.3356c.3.15.5437.4375.6312.7374.05.1625.0625 3.6372.05 11.4677l-.0188 11.2364-1.981-3.0372-1.9873-3.0372v-8.168c0-5.2807.025-8.2492.0625-8.3929.1-.35.3187-.625.6187-.7874.2562-.1313.3499-.1438 1.3311-.1438.9249 0 1.0874.0125 1.2936.125Z" fill="currentColor"/></g></svg>
