<svg viewBox="0 0 64 64" fill="none" xmlns="http://www.w3.org/2000/svg"><title>CSS logo</title><path d="M54.3418 12.5775 50.211 58.8524 31.6431 64l-18.5167-5.1404L9 12.5775h45.3418Z" fill="#264DE4"/><path d="m46.6746 55.9057 3.53-39.544H31.6709v43.7037l15.0037-4.1597Z" fill="#2965F1"/><path d="m18.4596 33.5271.5088 5.6763h12.7025v-5.6763H18.4596ZM31.6709 22.0381H17.4374l.516 5.6764h13.7175v-5.6764ZM31.6709 54.1749v-5.9058l-.0249.0066-6.3218-1.707-.4041-4.5271H19.222l.7952 8.9127 11.6275 3.2278.0262-.0072Z" fill="#EBEBEB"/><path d="M19.6709 0h6.875v2.875h-4V5.75h4v2.875h-6.875V0ZM27.9209 0h6.875v2.5h-4V3h4v5.75h-6.875V6.125h4v-.5h-4V0ZM43.0459 0h-6.875v5.625h4v.5h-4V8.75h6.875V3h-4v-.5h4V0Z" fill="currentColor"/><path d="m38.641 39.2034-.6589 7.3617-6.3309 1.7088v5.9055l11.6368-3.2251.0854-.959 1.3338-14.9439.1385-1.5243 1.0248-11.489H31.6512v5.6764h7.9985l-.5165 5.8126h-7.482v5.6763h6.9898Z" fill="#fff"/></svg>
