<svg viewBox="0 0 64 64" fill="none" xmlns="http://www.w3.org/2000/svg"><title>JavaScript logo</title><g clip-path="url(#a)"><path d="M64 0H0v64h64V0Z" fill="#F7DF1E"/><path d="m42.9924 50.0032-4.8972 2.8354c1.7612 3.48 5.37 6.1434 10.9548 6.1434 5.7137 0 9.9668-2.9641 9.9668-8.3774 0-5.0262-2.8785-7.26-7.9909-9.4511l-1.5035-.6443c-2.5774-1.1171-3.6945-1.8475-3.6945-3.6519 0-1.4605 1.1171-2.5774 2.8785-2.5774 1.7184 0 2.8351.7303 3.8662 2.5774l4.6828-3.0071c-1.976-3.4799-4.7255-4.8119-8.549-4.8119-5.3703 0-8.8071 3.4371-8.8071 7.948 0 4.8975 2.8785 7.2174 7.2178 9.0644l1.5032.6448c2.7496 1.2025 4.382 1.9329 4.382 3.995 0 1.7185-1.5891 2.9645-4.0811 2.9645-2.9642 0-4.6397-1.5466-5.9288-3.6518ZM16.8279 53.483c.0001.0002 0-.0001 0 0Z" fill="#000"/><path d="M16.8279 53.483c1.4178 3.007 4.2107 5.4985 9.0218 5.4985 5.3273 0 8.9788-2.8355 8.9788-9.0648V29.3821h-6.0144v20.4495c0 3.007-1.246 3.7801-3.2222 3.7801-2.0617 0-2.9213-1.4174-3.8662-3.0927l-4.8978 2.964Z" fill="#000"/></g><defs><clipPath id="a"><path fill="#fff" d="M0 0H64V64H0z"/></clipPath></defs></svg>
