<svg viewBox="0 0 64 64" fill="none" xmlns="http://www.w3.org/2000/svg"><title>Figma Logo</title><path fill="#1E1E1E" d="M0 0H64V64H0z"/><path d="M32 32.3556c0-1.7917.7117-3.51 1.9787-4.7769a6.7552 6.7552 0 0 1 9.5538 0A6.7555 6.7555 0 1 1 32 32.3556Z" fill="#1ABCFE"/><path d="M18.4889 45.8667a6.7555 6.7555 0 0 1 6.7555-6.7556H32v6.7556a6.7552 6.7552 0 0 1-6.7556 6.7555 6.7555 6.7555 0 0 1-6.7555-6.7555Z" fill="#0ACF83"/><path d="M32 12.0889V25.6h6.7556a6.7555 6.7555 0 0 0 0-13.5111H32Z" fill="#FF7262"/><path d="M18.4889 18.8444A6.7555 6.7555 0 0 0 25.2444 25.6H32V12.0889h-6.7556a6.7559 6.7559 0 0 0-4.7769 1.9786 6.7559 6.7559 0 0 0-1.9786 4.7769Z" fill="#F24E1E"/><path d="M18.4889 32.3556a6.7559 6.7559 0 0 0 1.9786 4.7769 6.7559 6.7559 0 0 0 4.7769 1.9786H32V25.6h-6.7556a6.7555 6.7555 0 0 0-6.7555 6.7556Z" fill="#A259FF"/></svg>
