<svg viewBox="0 0 1338 2752" xmlns="http://www.w3.org/2000/svg"><path d="M1137.4003 0c64.1893 0 87.466 6.6834 110.9326 19.2336 23.4667 12.55 41.8834 30.9668 54.4335 54.4335C1315.3166 97.1338 1322 120.4104 1322 184.5997V588c10.6667 0 16 5.3333 16 16v287c0 10.6667-5.3333 16-16 16v1660.4003c0 64.1893-6.6834 87.466-19.2335 110.9326-12.5502 23.4667-30.967 41.8834-54.4336 54.4336-23.4667 12.55-46.7433 19.2335-110.9326 19.2335H200.5997c-64.1893 0-87.466-6.6834-110.9326-19.2335-23.4667-12.5502-41.8834-30.967-54.4335-54.4336C22.6834 2654.8662 16 2631.5896 16 2567.4003V960c-10.6667 0-16-5.3333-16-16V753c0-10.6667 5.3333-16 16-16v-8c-10.6667 0-16-5.3333-16-16V522c0-10.6667 5.3333-16 16-16v-56c-10.6667 0-16-5.3333-16-16V322c0-10.6667 5.3333-16 16-16V184.5997c0-64.1893 6.6834-87.466 19.2336-110.9326 12.55-23.4667 30.9668-41.8834 54.4335-54.4335C113.1338 6.6834 136.4104 0 200.5997 0h936.8006zm1.0105 32h-937.811c-29.0706 0-49.2558 1.4108-64.1525 4.231l-.5175.099c-12.063 2.3295-20.6584 5.499-31.1715 11.1216-17.8901 9.5677-31.739 23.4166-41.3067 41.3067-5.4854 10.2567-8.636 18.688-10.9496 30.295l-.172.8765c-2.853 14.7742-4.2966 34.795-4.3294 63.6594L48 2571.4341c.137 27.2478 1.5777 46.3833 4.33 60.636 2.3295 12.063 5.499 20.6585 11.1216 31.1716 9.5677 17.8901 23.4166 31.739 41.3067 41.3067 10.2567 5.4854 18.688 8.636 30.295 10.9496l.8765.172c14.6024 2.8198 34.3301 4.2629 62.6561 4.33h938.8144c29.0705 0 49.2557-1.4108 64.1524-4.231l.5175-.099c12.063-2.3295 20.6584-5.499 31.1715-11.1216 17.8901-9.5677 31.739-23.4166 41.3067-41.3067 5.4854-10.2567 8.636-18.688 10.9496-30.295l.172-.8765c2.8198-14.6024 4.2629-34.3302 4.33-62.6561V184.5997c0-29.0705-1.4108-49.2557-4.231-64.1524l-.099-.5175c-2.3295-12.063-5.499-20.6584-11.1216-31.1715-9.5677-17.8901-23.4166-31.739-41.3067-41.3067-10.2567-5.4854-18.688-8.636-30.295-10.9496l-.8765-.172c-14.7742-2.853-34.795-4.2966-63.6594-4.33z" fill="#000" fill-rule="nonzero"/></svg>